<?xml version="1.0" encoding="UTF-8" standalone="no"?>
<svg
   width="793.701"
   height="1122.52"
   version="1.1"
   id="svg19"
   sodipodi:docname="Tea Leaf Art.svg"
   inkscape:version="1.1.1 (3bf5ae0d25, 2021-09-20)"
   xmlns:inkscape="http://www.inkscape.org/namespaces/inkscape"
   xmlns:sodipodi="http://sodipodi.sourceforge.net/DTD/sodipodi-0.dtd"
   xmlns="http://www.w3.org/2000/svg"
   xmlns:svg="http://www.w3.org/2000/svg">
  <defs
     id="defs23" />
  <sodipodi:namedview
     id="namedview21"
     pagecolor="#ffffff"
     bordercolor="#666666"
     borderopacity="1.0"
     inkscape:pageshadow="2"
     inkscape:pageopacity="0.0"
     inkscape:pagecheckerboard="0"
     showgrid="false"
     inkscape:lockguides="false"
     inkscape:zoom="0.7233724"
     inkscape:cx="650.4257"
     inkscape:cy="549.50949"
     inkscape:window-width="1920"
     inkscape:window-height="1001"
     inkscape:window-x="-9"
     inkscape:window-y="-9"
     inkscape:window-maximized="1"
     inkscape:current-layer="g17" />
  <title
     id="title2">Tea Leaf Art</title>
  <g
     id="g17">
    <title
       id="title4">Layer 1</title>
    <g
       id="layer1"
       transform="matrix(2.0719134,0,0,2.2080081,-334.06157,-515.06316)"
       style="fill:#ffffff">
      <path
         id="path12384"
         d="m -745.16998,-611.57398 v 0"
         style="fill:#ffffff" />
      <path
         id="path12382"
         d="m -745.87903,-533.23499 v 0"
         style="fill:#ffffff" />
      <path
         id="path12376"
         d="m -688.302,-611.57398 v 0"
         style="fill:#ffffff" />
      <path
         id="path12374"
         d="m -688.04901,-533.23499 v 0"
         style="fill:#ffffff" />
      <path
         id="path12366"
         d="m -507.97501,-611.57398 v 0"
         style="fill:#ffffff" />
      <path
         id="path12364"
         d="m -509.13901,-533.23499 v 0"
         style="fill:#ffffff" />
      <path
         id="path12356"
         d="m -326.43201,-611.57398 v 0"
         style="fill:#ffffff" />
      <path
         id="path12354"
         d="m -326.63501,-533.23499 v 0"
         style="fill:#ffffff" />
      <path
         id="path1383"
         fill="#54a800"
         d="M 159.23801,737.64398 C 295.327,724.73901 368.79199,654.534 485.26001,432.02802 c 0,0 -154.048,311.91198 -309.26302,289.346 z"
         style="fill:#ffffff;fill-opacity:1" />
      <path
         id="path1381"
         fill="#54a800"
         d="M 542.08301,238.33 C 503.759,341.422 428.043,416.73901 371.39999,472.729 c -28.32199,27.99601 -53.242,54.89301 -67.71899,87.625 -14.47601,32.73298 -18.189,71.15802 -4.71899,120.93799 l 10.78198,3.81201 c 0,0 -1.565,-6.72601 -1.806,-7.65399 13.97702,2.50501 67.823,7.13697 120.99301,-38.47101 61.625,-52.859 120.32999,-164.987 112.93802,-400.656 z m -9.21399,28.55599 C 534.78699,481.272 479.237,583.41901 422.806,631.823 c -54.26001,46.54303 -107.21399,44.297 -115.53101,43.656 -11.958,-46.47198 -8.30398,-81.263 5,-111.34301 13.629,-30.81598 37.586,-56.90998 65.719,-84.719 51.90402,-51.306 117.729,-108.50998 154.87503,-212.531 z"
         style="fill:#ffffff;fill-opacity:1" />
    </g>
  </g>
</svg>
